<?xml version="1.0" encoding="utf-8"?>
<!-- Generator: Adobe Illustrator 23.0.1, SVG Export Plug-In . SVG Version: 6.00 Build 0)  -->
<svg version="1.1" id="Box_4" xmlns="http://www.w3.org/2000/svg" xmlns:xlink="http://www.w3.org/1999/xlink" x="0px" y="0px"
	 viewBox="0 0 2084.8 680.7" style="enable-background:new 0 0 2084.8 680.7;" xml:space="preserve">
<style type="text/css">
	.st0{fill:none;stroke:#000000;stroke-width:6;stroke-miterlimit:10;}
</style>
<g>
	<path d="M190.2,200.5l-0.7,14c-0.1,1.8-0.5,3.1-1.2,4c-0.7,0.8-1.9,1.2-3.5,1.2c-1.3,0-2.3-0.4-2.9-1.1s-0.9-2-0.9-3.7v-1.1
		l0.7-13.6c-1.7-0.3-3.2-0.8-4.8-1.4c-1.5-0.7-3.1-1.5-4.6-2.6c-0.6,0.9-1.2,1.6-1.9,2.1c-0.7,0.4-1.5,0.7-2.4,0.7
		c-1.6,0-2.9-0.5-3.8-1.6c-0.9-1.1-1.4-2.5-1.4-4.4v-8.4c0-1.4,0.5-2.6,1.4-3.6c0.9-0.9,2.1-1.4,3.6-1.4c2.3,0,4,1.6,5.1,4.7
		c0.3,1,0.5,1.6,0.7,2c0.8,1.5,2.8,2.8,5.9,4.1c3.1,1.2,6.3,1.8,9.6,1.8c3.8,0,6.8-0.9,9.1-2.7c2.3-1.8,3.5-4.1,3.5-6.9
		c0-2.5-0.8-4.5-2.5-6.1c-1.7-1.6-5.3-3.4-11-5.3l-10.6-3.6c-4.1-1.4-7.3-3.7-9.7-6.9s-3.6-6.8-3.6-10.8c0-5.2,1.8-9.4,5.4-12.6
		c3.6-3.2,8.6-5,15-5.5l0.2-4.6c0.1-1.7,0.6-2.9,1.3-3.7s1.8-1.2,3.1-1.2c1.4,0,2.4,0.4,3.1,1.1c0.7,0.7,1.1,1.8,1.1,3.2v0.7
		l-0.4,4.8c1.5,0.4,2.9,0.9,4.4,1.4c1.4,0.5,2.8,1.1,4.1,1.7c0.6-0.7,1.2-1.3,1.8-1.6s1.3-0.5,2-0.5c1.4,0,2.4,0.4,3,1.1
		c0.6,0.7,0.9,2,0.9,3.8v7.4c0,1.5-0.4,2.6-1.1,3.4c-0.7,0.8-1.8,1.2-3.1,1.2c-2,0-3.6-1.2-4.7-3.7c-0.2-0.6-0.4-1.1-0.6-1.4
		c-0.8-1.6-2.3-2.9-4.5-3.8s-4.7-1.4-7.7-1.4c-4.1,0-7.3,0.9-9.8,2.6c-2.5,1.7-3.7,4-3.7,6.9c0,2.3,0.8,4.3,2.3,5.9
		c1.5,1.7,3.8,3,6.8,4l11.6,3.9c5.9,1.9,10.2,4.4,13,7.5c2.8,3.1,4.1,6.9,4.1,11.6c0,5.3-2,9.6-5.9,12.9
		C202.3,198.2,197,200.1,190.2,200.5z"/>
	<path d="M284.5,171c0-5.7-0.5-9.5-1.5-11.5c-1-2-2.8-3-5.3-3c-3,0-5.3,1.3-7.1,3.9c-1.7,2.6-2.6,6.1-2.6,10.6v25.1h1.1
		c2.4,0,4.1,0.3,4.9,0.9c0.8,0.6,1.2,1.7,1.2,3.3c0,1.4-0.3,2.5-1,3.3c-0.7,0.7-1.7,1.1-3.1,1.1h-7.7c-1.7,0-2.9-0.4-3.5-1.2
		c-0.6-0.8-0.9-2.5-0.9-5.2v-1.8V171v-4.7c0-3-0.7-5.4-2.1-7.2c-1.4-1.8-3.2-2.6-5.6-2.6c-1.8,0-3.5,0.5-5,1.6
		c-1.5,1.1-2.8,2.6-3.9,4.7v33.3h2.2c2.4,0,4,0.3,4.9,0.9c0.8,0.6,1.3,1.7,1.3,3.3c0,1.7-0.3,2.8-1,3.4c-0.7,0.6-2,0.9-3.9,0.9h-16
		c-1.6,0-2.7-0.4-3.5-1.1c-0.7-0.7-1.1-1.8-1.1-3.3c0-1.6,0.5-2.7,1.4-3.3c0.9-0.6,2.8-0.9,5.5-0.9h1.2v-38.8h-1.1
		c-2.8,0-4.7-0.3-5.7-1c-1-0.6-1.5-1.8-1.5-3.4c0-1.4,0.4-2.4,1.2-3.1c0.8-0.7,2-1,3.6-1h9.2c1.3,0,2.2,0.2,2.6,0.7s0.7,1.4,0.8,2.9
		c1.7-1.8,3.4-3.1,5.3-3.9c1.9-0.8,4-1.3,6.4-1.3c2.8,0,5.2,0.6,7,1.8c1.8,1.2,3.2,3.1,4.1,5.6c1.7-2.5,3.6-4.4,5.9-5.6
		s4.8-1.8,7.6-1.8c5.2,0,9,1.7,11.4,5.1c2.4,3.4,3.6,8.9,3.6,16.4v27.4h1c2.5,0,4.1,0.3,5,0.9c0.8,0.6,1.3,1.7,1.3,3.3
		c0,1.4-0.4,2.5-1.1,3.3s-1.8,1.1-3.2,1.1h-7.3c-1.6,0-2.8-0.5-3.6-1.4c-0.8-1-1.1-2.5-1.1-4.6V171z"/>
	<path d="M331.8,220h2.6c2.9,0,4.9,0.3,6,0.9s1.6,1.8,1.6,3.4c0,1.4-0.4,2.5-1.2,3.2s-2,1.1-3.6,1.1h-27.8c-1.9,0-3.2-0.3-4-1
		c-0.7-0.6-1.1-1.8-1.1-3.3c0-1.4,0.4-2.5,1.2-3.3s2-1.1,3.5-1.1H322l9.8-19.3l-22.2-43.5c-2.7,0-4.5-0.3-5.5-1s-1.5-1.8-1.5-3.4
		c0-1.4,0.4-2.4,1.2-3.1c0.8-0.7,2-1,3.6-1h16.8c2.3,0,3.8,0.3,4.5,0.9c0.8,0.6,1.1,1.7,1.1,3.3c0,1.6-0.5,2.7-1.5,3.4
		c-1,0.6-2.9,1-5.6,1h-2.2l16.4,33.3l16.7-33.3h-2.4c-2.8,0-4.7-0.3-5.7-1s-1.6-1.8-1.6-3.4c0-1.6,0.4-2.6,1.1-3.3
		c0.8-0.6,2.3-0.9,4.6-0.9h14.9c1.7,0,2.9,0.3,3.7,1c0.8,0.7,1.2,1.7,1.2,3.1c0,1.5-0.4,2.6-1.3,3.2c-0.9,0.6-2.5,1-4.7,1.1
		L331.8,220z"/>
	<path d="M448.7,226.6v7.2h-76.4v-7.2H448.7z"/>
	<path d="M464.3,179.3c0.3,5.8,2.3,10.3,5.9,13.5s8.5,4.8,14.8,4.8c4.7,0,9.8-1.3,15.4-3.8c5.6-2.5,8.9-3.8,10.1-3.8
		c1.2,0,2.2,0.4,3,1.1c0.8,0.8,1.2,1.7,1.2,2.8c0,1.2-0.4,2.2-1.3,3.2c-0.8,1-2.2,1.9-4,2.8c-4,2-8.2,3.5-12.5,4.5
		c-4.3,1-8.5,1.6-12.8,1.6c-9.2,0-16.5-2.6-22-7.9c-5.5-5.3-8.3-12.3-8.3-21c0-8.9,2.9-16.1,8.8-21.6c5.8-5.5,13.4-8.3,22.8-8.3
		c8.5,0,15.5,2.6,21.1,7.7c5.6,5.2,8.4,11.4,8.4,18.7c0,2.3-0.5,3.8-1.4,4.5c-0.9,0.8-3.5,1.1-7.7,1.1h-0.9H464.3z M464.6,171.4
		h39.3c-0.6-4.8-2.6-8.6-6-11.6c-3.4-2.9-7.6-4.4-12.5-4.4c-5.4,0-9.9,1.4-13.5,4.2C468.2,162.5,465.8,166.4,464.6,171.4z"/>
	<path d="M545.7,196.1h1.8c2,0,3.6,0.4,4.7,1.1c1.1,0.7,1.7,1.8,1.7,3.2c0,1.4-0.5,2.5-1.5,3.2c-1,0.7-2.5,1-4.7,1H531
		c-1.2,0-2.2-0.4-3-1.2c-0.8-0.8-1.2-1.8-1.2-3c0-1.5,0.5-2.6,1.6-3.3c1.1-0.7,2.8-1,5.2-1h1.2l19.6-20.1l-19.2-18.7h-0.8
		c-2.3,0-4-0.3-4.9-0.9c-0.9-0.6-1.4-1.7-1.4-3.3c0-1.6,0.5-2.8,1.5-3.4c1-0.6,3-0.9,5.9-0.9h12.4c2.2,0,3.8,0.3,4.7,1
		c1,0.7,1.5,1.8,1.5,3.3c0,1.4-0.6,2.4-1.7,3.1c-1.1,0.7-2.7,1.1-4.8,1.1h-0.5l13,12.7l12.4-12.7h-1.3c-2.3,0-3.9-0.3-5-1
		s-1.6-1.7-1.6-3.1c0-1.6,0.5-2.7,1.4-3.4c1-0.7,2.5-1,4.7-1h15.7c1.2,0,2.3,0.4,3,1.2c0.8,0.8,1.2,1.8,1.2,3c0,1.5-0.5,2.6-1.5,3.3
		c-1,0.7-2.6,1-4.8,1h-1.7l-17.3,18.1l21.1,20.7h0.6c1.5,0,2.7,0.4,3.6,1.1c0.8,0.7,1.3,1.8,1.3,3.2c0,1.6-0.5,2.7-1.4,3.3
		c-1,0.6-3,0.9-6,0.9h-12.3c-2.1,0-3.7-0.3-4.7-1c-1-0.7-1.5-1.8-1.5-3.2c0-1.3,0.5-2.4,1.4-3.1c1-0.8,2.3-1.1,4-1.1h3.4l-15.2-14.9
		L545.7,196.1z"/>
	<path d="M647,196.9c-3.3,3-6.9,5.3-10.8,6.8c-3.9,1.6-7.9,2.4-12,2.4c-6,0-10.8-1.7-14.5-5c-3.7-3.3-5.5-7.7-5.5-13
		c0-6.4,2.4-11.3,7.3-14.8s11.8-5.3,20.6-5.3c2.3,0,4.7,0.2,7.1,0.5c2.4,0.3,4.8,0.8,7.3,1.4v-0.4c0-4.6-1.1-8.1-3.3-10.3
		c-2.2-2.2-5.7-3.3-10.3-3.3c-3.1,0-6.6,0.8-10.5,2.5s-6.4,2.5-7.7,2.5c-1.2,0-2.1-0.5-2.9-1.4c-0.8-0.9-1.1-2.2-1.1-3.7
		c0-2.4,2.2-4.4,6.7-6c4.4-1.7,10.1-2.5,17.1-2.5c7.1,0,12.4,1.8,16.1,5.4c3.6,3.6,5.4,8.9,5.4,16v27.4h3c2.9,0,4.8,0.3,5.7,0.9
		c1,0.6,1.4,1.7,1.4,3.3c0,1.4-0.4,2.5-1.2,3.3c-0.8,0.7-2,1.1-3.6,1.1h-9.5c-1.1,0-2.1-0.3-2.8-1c-0.7-0.7-1.2-1.7-1.4-3L647,196.9
		z M646.5,177.9c-2.2-0.7-4.4-1.3-6.4-1.6c-2.1-0.3-4.1-0.5-6.2-0.5c-6.2,0-11.1,1-14.7,3.1c-3.6,2.1-5.4,4.9-5.4,8.5
		c0,2.7,1.1,5,3.4,6.8s5.1,2.7,8.5,2.7c5.1,0,9.9-1.3,14.2-4s6.6-5.5,6.6-8.4V177.9z"/>
	<path d="M729.7,171c0-5.7-0.5-9.5-1.5-11.5c-1-2-2.8-3-5.3-3c-3,0-5.3,1.3-7.1,3.9c-1.7,2.6-2.6,6.1-2.6,10.6v25.1h1.1
		c2.4,0,4.1,0.3,4.9,0.9c0.8,0.6,1.2,1.7,1.2,3.3c0,1.4-0.3,2.5-1,3.3c-0.7,0.7-1.7,1.1-3.1,1.1h-7.7c-1.7,0-2.9-0.4-3.5-1.2
		c-0.6-0.8-0.9-2.5-0.9-5.2v-1.8V171v-4.7c0-3-0.7-5.4-2.1-7.2c-1.4-1.8-3.2-2.6-5.6-2.6c-1.8,0-3.5,0.5-5,1.6
		c-1.5,1.1-2.8,2.6-3.9,4.7v33.3h2.2c2.4,0,4,0.3,4.9,0.9c0.8,0.6,1.3,1.7,1.3,3.3c0,1.7-0.3,2.8-1,3.4c-0.7,0.6-2,0.9-3.9,0.9h-16
		c-1.6,0-2.7-0.4-3.5-1.1c-0.7-0.7-1.1-1.8-1.1-3.3c0-1.6,0.5-2.7,1.4-3.3c0.9-0.6,2.8-0.9,5.5-0.9h1.2v-38.8h-1.1
		c-2.8,0-4.7-0.3-5.7-1c-1-0.6-1.5-1.8-1.5-3.4c0-1.4,0.4-2.4,1.2-3.1c0.8-0.7,2-1,3.6-1h9.2c1.3,0,2.2,0.2,2.6,0.7s0.7,1.4,0.8,2.9
		c1.7-1.8,3.4-3.1,5.3-3.9c1.9-0.8,4-1.3,6.4-1.3c2.8,0,5.2,0.6,7,1.8c1.8,1.2,3.2,3.1,4.1,5.6c1.7-2.5,3.6-4.4,5.9-5.6
		s4.8-1.8,7.6-1.8c5.2,0,9,1.7,11.4,5.1c2.4,3.4,3.6,8.9,3.6,16.4v27.4h1c2.5,0,4.1,0.3,5,0.9c0.8,0.6,1.3,1.7,1.3,3.3
		c0,1.4-0.4,2.5-1.1,3.3s-1.8,1.1-3.2,1.1h-7.3c-1.6,0-2.8-0.5-3.6-1.4c-0.8-1-1.1-2.5-1.1-4.6V171z"/>
	<path d="M765.9,220h14.5c1.5,0,2.7,0.4,3.4,1.1s1.1,1.8,1.1,3.3c0,1.6-0.4,2.7-1.1,3.3c-0.7,0.6-2.1,1-4,1h-26.6
		c-1.6,0-2.8-0.4-3.7-1.1s-1.2-1.8-1.2-3.2c0-1.6,0.5-2.7,1.5-3.4c1-0.6,2.9-1,5.7-1h1.1v-62.7h-1.1c-2.8,0-4.7-0.3-5.7-1
		c-1-0.6-1.5-1.8-1.5-3.4c0-1.4,0.4-2.5,1.2-3.2s2-1.1,3.7-1.1h9.2c1.2,0,2.1,0.2,2.6,0.6c0.5,0.4,0.8,1,0.8,1.9v5.9
		c2.7-2.8,5.8-4.9,9.1-6.3c3.3-1.4,6.9-2.1,10.7-2.1c8.1,0,14.9,2.7,20.3,8.2c5.4,5.5,8.2,12.3,8.2,20.6c0,7.9-2.6,14.5-7.7,19.6
		c-5.2,5.1-11.7,7.7-19.7,7.7c-4.3,0-8.2-0.8-11.8-2.3c-3.6-1.5-6.6-3.7-9-6.5V220z M784.7,195.8c5.6,0,10.2-1.8,13.8-5.3
		c3.6-3.5,5.4-8.1,5.4-13.7c0-5.5-1.8-10-5.4-13.6c-3.6-3.6-8.2-5.3-13.7-5.3s-10.1,1.8-13.6,5.3c-3.5,3.5-5.3,8.1-5.3,13.6
		c0,5.6,1.8,10.1,5.3,13.6C774.5,194.1,779.1,195.8,784.7,195.8z"/>
	<path d="M851.7,134.2h-10.3c-3.9,0-6.4-0.3-7.3-0.9s-1.5-1.8-1.5-3.4c0-1.4,0.4-2.5,1.2-3.3c0.8-0.7,2-1.1,3.6-1.1h19.9
		c1.1,0,1.9,0.2,2.5,0.7c0.6,0.4,0.9,1,0.9,1.8v68h19c1.5,0,2.6,0.3,3.4,1c0.7,0.7,1.1,1.7,1.1,3.2c0,1.7-0.3,2.8-1,3.4
		c-0.7,0.6-2,0.9-3.9,0.9h-44.6c-1.6,0-2.8-0.4-3.6-1.1c-0.8-0.7-1.2-1.8-1.2-3.3c0-1.4,0.4-2.5,1.3-3.1c0.8-0.7,2.1-1,3.8-1h16.7
		V134.2z"/>
	<path d="M909.5,179.3c0.3,5.8,2.3,10.3,5.9,13.5s8.5,4.8,14.8,4.8c4.7,0,9.8-1.3,15.4-3.8c5.6-2.5,8.9-3.8,10.1-3.8
		c1.2,0,2.2,0.4,3,1.1c0.8,0.8,1.2,1.7,1.2,2.8c0,1.2-0.4,2.2-1.3,3.2c-0.8,1-2.2,1.9-4,2.8c-4,2-8.2,3.5-12.5,4.5
		c-4.3,1-8.5,1.6-12.8,1.6c-9.2,0-16.5-2.6-22-7.9c-5.5-5.3-8.3-12.3-8.3-21c0-8.9,2.9-16.1,8.8-21.6c5.8-5.5,13.4-8.3,22.8-8.3
		c8.5,0,15.5,2.6,21.1,7.7c5.6,5.2,8.4,11.4,8.4,18.7c0,2.3-0.5,3.8-1.4,4.5c-0.9,0.8-3.5,1.1-7.7,1.1h-0.9H909.5z M909.8,171.4
		h39.3c-0.6-4.8-2.6-8.6-6-11.6c-3.4-2.9-7.6-4.4-12.5-4.4c-5.4,0-9.9,1.4-13.5,4.2C913.4,162.5,911,166.4,909.8,171.4z"/>
	<path d="M1051.3,151.9h54.2c1.2,0,2.1,0.4,2.8,1.1c0.7,0.8,1,1.9,1,3.3c0,1.4-0.3,2.6-1,3.3s-1.6,1.1-2.8,1.1h-54.2
		c-1.2,0-2.2-0.4-2.9-1.1s-1-1.9-1-3.4c0-1.4,0.3-2.5,1-3.3C1049.1,152.3,1050.1,151.9,1051.3,151.9z M1051.3,172.2h54.2
		c1.2,0,2.1,0.4,2.8,1.2s1,1.9,1,3.3c0,1.4-0.3,2.6-1,3.3s-1.6,1.1-2.8,1.1h-54.2c-1.2,0-2.2-0.4-2.9-1.1s-1-1.9-1-3.3
		c0-1.4,0.3-2.6,1-3.3S1050.1,172.2,1051.3,172.2z"/>
	<path d="M1218.1,159.7c-0.3,1.1-0.6,1.8-1,2.1c-0.4,0.3-1.1,0.5-2.1,0.5h-10.5c-0.5,0-0.9-0.1-1.2-0.3c-0.3-0.2-0.5-0.4-0.5-0.7
		c0-0.1,0-0.3,0.1-0.5c0.1-0.2,0.2-0.5,0.3-0.8l13.2-27.4c0.4-0.6,0.7-1,1-1.3c0.3-0.3,0.7-0.4,1.1-0.4c0.2,0,0.5,0,0.8,0.1
		c0.1,0.1,0.2,0.1,0.2,0.1l3.3,1.3c0.5,0.2,0.9,0.4,1.2,0.8c0.3,0.3,0.5,0.7,0.5,1.1c0,0.2,0,0.3-0.1,0.5c-0.1,0.2-0.1,0.4-0.2,0.7
		L1218.1,159.7z M1241.9,159.7c-0.3,1.1-0.6,1.8-1,2.1c-0.4,0.3-1.1,0.5-2.1,0.5h-10.6c-0.4,0-0.8-0.1-1.1-0.3
		c-0.3-0.2-0.4-0.4-0.4-0.7c0-0.1,0-0.3,0.1-0.5c0.1-0.2,0.2-0.5,0.2-0.8l13.3-27.4c0.3-0.6,0.6-1,1-1.3c0.3-0.3,0.6-0.4,1-0.4
		c0.2,0,0.5,0,0.8,0.1c0.1,0.1,0.2,0.1,0.2,0.1l3.4,1.3c0.5,0.2,0.9,0.4,1.1,0.8c0.3,0.3,0.4,0.7,0.4,1.1c0,0.3,0,0.6,0,0.8
		c0,0.2-0.1,0.3-0.1,0.5L1241.9,159.7z"/>
	<path d="M1323.4,171c0-5.7-0.5-9.5-1.5-11.5c-1-2-2.8-3-5.3-3c-3,0-5.3,1.3-7.1,3.9c-1.7,2.6-2.6,6.1-2.6,10.6v25.1h1.1
		c2.4,0,4.1,0.3,4.9,0.9c0.8,0.6,1.2,1.7,1.2,3.3c0,1.4-0.3,2.5-1,3.3c-0.7,0.7-1.7,1.1-3.1,1.1h-7.7c-1.7,0-2.9-0.4-3.5-1.2
		c-0.6-0.8-0.9-2.5-0.9-5.2v-1.8V171v-4.7c0-3-0.7-5.4-2.1-7.2c-1.4-1.8-3.2-2.6-5.6-2.6c-1.8,0-3.5,0.5-5,1.6
		c-1.5,1.1-2.8,2.6-3.9,4.7v33.3h2.2c2.4,0,4,0.3,4.9,0.9c0.8,0.6,1.3,1.7,1.3,3.3c0,1.7-0.3,2.8-1,3.4c-0.7,0.6-2,0.9-3.9,0.9h-16
		c-1.6,0-2.7-0.4-3.5-1.1c-0.7-0.7-1.1-1.8-1.1-3.3c0-1.6,0.5-2.7,1.4-3.3c0.9-0.6,2.8-0.9,5.5-0.9h1.2v-38.8h-1.1
		c-2.8,0-4.7-0.3-5.7-1c-1-0.6-1.5-1.8-1.5-3.4c0-1.4,0.4-2.4,1.2-3.1c0.8-0.7,2-1,3.6-1h9.2c1.3,0,2.2,0.2,2.6,0.7s0.7,1.4,0.8,2.9
		c1.7-1.8,3.4-3.1,5.3-3.9c1.9-0.8,4-1.3,6.4-1.3c2.8,0,5.2,0.6,7,1.8c1.8,1.2,3.2,3.1,4.1,5.6c1.7-2.5,3.6-4.4,5.9-5.6
		s4.8-1.8,7.6-1.8c5.2,0,9,1.7,11.4,5.1c2.4,3.4,3.6,8.9,3.6,16.4v27.4h1c2.5,0,4.1,0.3,5,0.9c0.8,0.6,1.3,1.7,1.3,3.3
		c0,1.4-0.4,2.5-1.1,3.3s-1.8,1.1-3.2,1.1h-7.3c-1.6,0-2.8-0.5-3.6-1.4c-0.8-1-1.1-2.5-1.1-4.6V171z"/>
	<path d="M1370.6,220h2.6c2.9,0,4.9,0.3,6,0.9s1.6,1.8,1.6,3.4c0,1.4-0.4,2.5-1.2,3.2s-2,1.1-3.6,1.1h-27.8c-1.9,0-3.2-0.3-4-1
		c-0.7-0.6-1.1-1.8-1.1-3.3c0-1.4,0.4-2.5,1.2-3.3s2-1.1,3.5-1.1h13.1l9.8-19.3l-22.2-43.5c-2.7,0-4.5-0.3-5.5-1s-1.5-1.8-1.5-3.4
		c0-1.4,0.4-2.4,1.2-3.1c0.8-0.7,2-1,3.6-1h16.8c2.3,0,3.8,0.3,4.5,0.9c0.8,0.6,1.1,1.7,1.1,3.3c0,1.6-0.5,2.7-1.5,3.4
		c-1,0.6-2.9,1-5.6,1h-2.2l16.4,33.3l16.7-33.3h-2.4c-2.8,0-4.7-0.3-5.7-1s-1.6-1.8-1.6-3.4c0-1.6,0.4-2.6,1.1-3.3
		c0.8-0.6,2.3-0.9,4.6-0.9h14.9c1.7,0,2.9,0.3,3.7,1c0.8,0.7,1.2,1.7,1.2,3.1c0,1.5-0.4,2.6-1.3,3.2c-0.9,0.6-2.5,1-4.7,1.1
		L1370.6,220z"/>
	<path d="M1495.9,157.3c-2.7,0-4.5-0.3-5.5-1s-1.5-1.8-1.5-3.4c0-1.4,0.4-2.4,1.2-3.1c0.8-0.7,2-1,3.6-1h16.9c2.3,0,3.8,0.3,4.6,0.9
		c0.8,0.6,1.1,1.7,1.1,3.3c0,1.6-0.5,2.7-1.5,3.4s-2.9,1-5.6,1h-2.2l15.7,39.1l17.4-39.1h-3.6c-3.1,0-5.2-0.3-6.3-0.9
		c-1.1-0.6-1.6-1.7-1.6-3.4c0-1.6,0.4-2.6,1.1-3.3c0.8-0.6,2.3-0.9,4.6-0.9h18.7c1.6,0,2.8,0.3,3.6,1c0.8,0.7,1.2,1.7,1.2,3.1
		c0,1.6-0.5,2.7-1.5,3.4s-2.8,1-5.5,1h-1.1l-19.9,44.1c-1,2.2-2,3.7-3,4.3c-1,0.7-2.4,1-4.3,1c-1.7,0-3.1-0.3-4-1
		c-0.9-0.6-1.9-2.1-2.9-4.4L1495.9,157.3z"/>
	<path d="M1611.7,196.9c-3.3,3-6.9,5.3-10.8,6.8c-3.9,1.6-7.9,2.4-12,2.4c-6,0-10.8-1.7-14.5-5c-3.7-3.3-5.5-7.7-5.5-13
		c0-6.4,2.4-11.3,7.3-14.8s11.8-5.3,20.6-5.3c2.3,0,4.7,0.2,7.1,0.5c2.4,0.3,4.8,0.8,7.3,1.4v-0.4c0-4.6-1.1-8.1-3.3-10.3
		c-2.2-2.2-5.7-3.3-10.3-3.3c-3.1,0-6.6,0.8-10.5,2.5s-6.4,2.5-7.7,2.5c-1.2,0-2.1-0.5-2.9-1.4c-0.8-0.9-1.1-2.2-1.1-3.7
		c0-2.4,2.2-4.4,6.7-6c4.4-1.7,10.1-2.5,17.1-2.5c7.1,0,12.4,1.8,16.1,5.4c3.6,3.6,5.4,8.9,5.4,16v27.4h3c2.9,0,4.8,0.3,5.7,0.9
		c1,0.6,1.4,1.7,1.4,3.3c0,1.4-0.4,2.5-1.2,3.3c-0.8,0.7-2,1.1-3.6,1.1h-9.5c-1.1,0-2.1-0.3-2.8-1c-0.7-0.7-1.2-1.7-1.4-3
		L1611.7,196.9z M1611.2,177.9c-2.2-0.7-4.4-1.3-6.4-1.6c-2.1-0.3-4.1-0.5-6.2-0.5c-6.2,0-11.1,1-14.7,3.1c-3.6,2.1-5.4,4.9-5.4,8.5
		c0,2.7,1.1,5,3.4,6.8s5.1,2.7,8.5,2.7c5.1,0,9.9-1.3,14.2-4s6.6-5.5,6.6-8.4V177.9z"/>
	<path d="M1668,134.2h-10.3c-3.9,0-6.4-0.3-7.3-0.9s-1.5-1.8-1.5-3.4c0-1.4,0.4-2.5,1.2-3.3c0.8-0.7,2-1.1,3.6-1.1h19.9
		c1.1,0,1.9,0.2,2.5,0.7c0.6,0.4,0.9,1,0.9,1.8v68h19c1.5,0,2.6,0.3,3.4,1c0.7,0.7,1.1,1.7,1.1,3.2c0,1.7-0.3,2.8-1,3.4
		c-0.7,0.6-2,0.9-3.9,0.9H1651c-1.6,0-2.8-0.4-3.6-1.1c-0.8-0.7-1.2-1.8-1.2-3.3c0-1.4,0.4-2.5,1.3-3.1c0.8-0.7,2.1-1,3.8-1h16.7
		V134.2z"/>
	<path d="M1731.2,182.3c0,5.1,1.1,8.8,3.2,11.1c2.1,2.3,5.5,3.5,10.1,3.5c4.4,0,8.1-1.4,11.3-4.2c3.1-2.8,4.7-6.3,4.7-10.5v-25h-8.3
		c-1.6,0-2.7-0.3-3.4-1c-0.7-0.7-1.1-1.7-1.1-3.1c0-1.5,0.4-2.6,1.1-3.4c0.8-0.7,2-1.1,3.7-1.1h12.9c1.5,0,2.6,0.3,3.2,1
		s0.9,2.3,0.9,4.9v41.4h2.8c2,0,3.4,0.3,4.3,1c0.9,0.6,1.3,1.7,1.3,3.2c0,1.4-0.4,2.5-1.2,3.3s-2,1.1-3.6,1.1h-9.2
		c-1.1,0-1.9-0.2-2.5-0.7c-0.6-0.4-0.9-1-0.9-1.8V198c-3.9,3-7.2,5-9.9,6.1c-2.8,1.1-5.7,1.7-8.7,1.7c-6.6,0-11.6-1.8-14.9-5.3
		c-3.3-3.5-5-8.9-5-16v-27.2h-1.3c-2.7,0-4.6-0.3-5.6-1c-1-0.6-1.5-1.8-1.5-3.4c0-1.4,0.4-2.4,1.2-3.1c0.8-0.7,2-1,3.7-1h9.1
		c1.4,0,2.4,0.3,2.9,0.8c0.5,0.6,0.8,1.8,0.8,3.7V182.3z"/>
	<path d="M1800,179.3c0.3,5.8,2.3,10.3,5.9,13.5s8.5,4.8,14.8,4.8c4.7,0,9.8-1.3,15.4-3.8c5.6-2.5,8.9-3.8,10.1-3.8
		c1.2,0,2.2,0.4,3,1.1c0.8,0.8,1.2,1.7,1.2,2.8c0,1.2-0.4,2.2-1.3,3.2c-0.8,1-2.2,1.9-4,2.8c-4,2-8.2,3.5-12.5,4.5
		c-4.3,1-8.5,1.6-12.8,1.6c-9.2,0-16.5-2.6-22-7.9c-5.5-5.3-8.3-12.3-8.3-21c0-8.9,2.9-16.1,8.8-21.6c5.8-5.5,13.4-8.3,22.8-8.3
		c8.5,0,15.5,2.6,21.1,7.7c5.6,5.2,8.4,11.4,8.4,18.7c0,2.3-0.5,3.8-1.4,4.5c-0.9,0.8-3.5,1.1-7.7,1.1h-0.9H1800z M1800.3,171.4
		h39.3c-0.6-4.8-2.6-8.6-6-11.6c-3.4-2.9-7.6-4.4-12.5-4.4c-5.4,0-9.9,1.4-13.5,4.2C1803.9,162.5,1801.5,166.4,1800.3,171.4z"/>
	<path d="M1878.9,135.6c0.3-1.1,0.6-1.8,1-2.1c0.4-0.3,1.1-0.5,2.1-0.5h10.5c0.4,0,0.8,0.1,1.1,0.3c0.3,0.2,0.5,0.5,0.5,0.8
		c0,0.1,0,0.3-0.1,0.5c-0.1,0.2-0.2,0.5-0.3,0.8l-13.2,27.4c-0.2,0.5-0.5,0.9-0.9,1.2c-0.4,0.3-0.8,0.4-1.2,0.4c-0.1,0-0.2,0-0.3,0
		c-0.1,0-0.4-0.1-0.6-0.2l-3.4-1.2c-0.5-0.2-0.9-0.5-1.1-0.8c-0.3-0.3-0.4-0.6-0.4-1c0-0.2,0-0.4,0.1-0.6c0-0.2,0.1-0.4,0.2-0.6
		L1878.9,135.6z M1902.7,135.6c0.3-1.1,0.6-1.8,1-2.1c0.4-0.3,1.1-0.5,2.1-0.5h10.5c0.4,0,0.7,0.1,1,0.3s0.4,0.5,0.4,0.8
		c0,0.1,0,0.3-0.1,0.5c-0.1,0.2-0.2,0.5-0.3,0.8l-13.1,27.4c-0.2,0.5-0.5,0.9-0.9,1.2c-0.3,0.3-0.8,0.4-1.2,0.4c-0.1,0-0.2,0-0.3,0
		c-0.1,0-0.3-0.1-0.7-0.2l-3.3-1.2c-0.5-0.2-0.9-0.5-1.2-0.8c-0.3-0.3-0.4-0.6-0.4-1c0-0.3,0-0.6,0-0.8c0-0.2,0-0.3,0.1-0.5
		L1902.7,135.6z"/>
	<path d="M1961.3,189.9c0.4-1.3,0.8-2.2,1.3-2.5c0.5-0.4,1.3-0.5,2.5-0.5h12.5c0.5,0,1,0.1,1.3,0.4c0.3,0.2,0.5,0.5,0.5,0.9
		c0,0.1,0,0.3-0.1,0.7c-0.1,0.3-0.2,0.6-0.4,0.9l-15.6,32.4c-0.3,0.6-0.7,1.1-1.1,1.4c-0.4,0.3-0.9,0.4-1.4,0.4c-0.3,0-0.6,0-0.8,0
		c-0.2,0-0.3-0.1-0.5-0.1l-4-1.4c-0.6-0.2-1.1-0.5-1.4-0.9s-0.5-0.8-0.5-1.2c0-0.2,0-0.3,0-0.5c0-0.2,0.1-0.5,0.2-1L1961.3,189.9z
		 M1956.6,161.3c0-3.1,1.1-5.7,3.3-7.7c2.2-2,5-3,8.5-3c3.6,0,6.5,1,8.7,3s3.3,4.6,3.3,7.8c0,3.2-1.1,5.8-3.3,7.8s-5.1,3-8.7,3
		c-3.5,0-6.4-1-8.6-3C1957.7,167.1,1956.6,164.5,1956.6,161.3z"/>
</g>
<polyline class="st0" points="159.9,255.6 159.9,318.5 206.3,318.5 206.3,255.6 "/>
<polyline class="st0" points="1035.4,255.6 1035.4,318.5 1121.4,318.5 1121.4,255.6 "/>
<polyline class="st0" points="225.8,255.6 225.8,318.5 972.2,318.5 972.2,255.6 "/>
<polyline class="st0" points="1191.8,255.6 1191.8,318.5 1928.4,318.5 1928.4,255.6 "/>
<line class="st0" x1="183.1" y1="318.5" x2="183.1" y2="425.3"/>
<line class="st0" x1="599" y1="318.5" x2="599" y2="425.3"/>
<line class="st0" x1="1078.4" y1="318.5" x2="1078.4" y2="425.3"/>
<line class="st0" x1="1581" y1="318.5" x2="1581" y2="425.3"/>
<g>
	<path d="M154.8,461.8c-2.3-2-6.4-4.1-10.2-4.1c-4.8,0-9.5,2.6-9.5,7.7c0,3,2,5.8,6.7,8.2l4.8,2.5c7.2,3.7,10.6,7.7,10.6,13.3
		c0,6.1-5.1,12.3-14.3,12.3c-6.1,0-10.6-2.5-13.7-5.3l2.3-3.1c3.2,3.1,7.1,4.9,11.7,4.9c6.1,0,9.9-4.3,9.9-8.5c0-4.7-3-7.2-9-10.3
		l-3.9-2c-6-3.2-9.2-6.5-9.2-11.8c0-7.2,6.2-11.4,13.5-11.4c5,0,9.5,2.1,12.5,4.5L154.8,461.8z"/>
	<path d="M169.5,500.9h-4v-25.6h-4.6V472h8.6V500.9z M167.2,458c1.9,0,3.5,1.6,3.5,3.5s-1.6,3.5-3.5,3.5s-3.5-1.6-3.5-3.5
		S165.3,458,167.2,458z"/>
	<path d="M206.5,504c0,4.7-2.2,8.5-8.5,8.5h-11v-3.3h10.5c2.8,0,5-0.9,5-4.2v-9.5c-1.8,3.6-6.1,6.3-11,6.3
		c-8.3,0-14.7-6.4-14.7-15.2c0-8.9,6.3-15.3,14.6-15.3c5,0,9.5,2.8,11.2,6.4V472h4V504z M202.6,486.5c0-6.6-4.5-11.8-10.9-11.8
		s-11,5.1-11,11.8c0,6.6,4.5,11.8,11,11.8S202.6,493.1,202.6,486.5z"/>
	<path d="M220.9,500.9h-4v-25.6h-4.6V472h8.6V500.9z M218.6,458c1.9,0,3.5,1.6,3.5,3.5s-1.6,3.5-3.5,3.5s-3.5-1.6-3.5-3.5
		S216.7,458,218.6,458z"/>
	<path d="M234.2,500.9h-4v-46h4V500.9z"/>
</g>
<g>
	<path d="M931.6,484.7l-5.4,16.2H922l15.8-46h5.1l15.9,46h-4.4l-5.5-16.2H931.6z M932.7,481.2h15l-7.4-22.2h-0.2L932.7,481.2z"/>
	<path d="M979.3,493.3c0-2.9-2.4-4.1-6.5-5.6l-1.6-0.6c-4.4-1.6-7.4-3.8-7.4-8c0-4.8,4.3-7.8,9.9-7.8c3.4,0,7,1.2,9.4,3.3l-2.2,3
		c-2-1.6-5.1-2.9-7.4-2.9c-3.2,0-5.6,1.6-5.6,4.1c0,1.8,1.3,3.3,4.3,4.4l3.3,1.2c5.6,2.2,7.9,4.6,7.9,8.9c0,3.7-3.2,8.4-10.6,8.4
		c-3.4,0-7.6-1.4-10.2-3.6l2.1-3c2.2,1.9,5.6,3.1,8.2,3.1C976.8,498.2,979.3,495.9,979.3,493.3z"/>
	<path d="M1004.6,493.3c0-2.9-2.4-4.1-6.5-5.6l-1.6-0.6c-4.4-1.6-7.4-3.8-7.4-8c0-4.8,4.3-7.8,9.9-7.8c3.4,0,7,1.2,9.4,3.3l-2.2,3
		c-2-1.6-5.1-2.9-7.4-2.9c-3.2,0-5.6,1.6-5.6,4.1c0,1.8,1.3,3.3,4.3,4.4l3.3,1.2c5.6,2.2,7.9,4.6,7.9,8.9c0,3.7-3.2,8.4-10.6,8.4
		c-3.4,0-7.6-1.4-10.2-3.6l2.1-3c2.2,1.9,5.6,3.1,8.2,3.1C1002.2,498.2,1004.6,495.9,1004.6,493.3z"/>
	<path d="M1021,500.9h-4v-25.6h-4.6V472h8.6V500.9z M1018.7,458c1.9,0,3.5,1.6,3.5,3.5s-1.6,3.5-3.5,3.5s-3.5-1.6-3.5-3.5
		S1016.8,458,1018.7,458z"/>
	<path d="M1058,504c0,4.7-2.2,8.5-8.5,8.5h-11v-3.3h10.5c2.8,0,5-0.9,5-4.2v-9.5c-1.8,3.6-6.1,6.3-11,6.3c-8.3,0-14.7-6.4-14.7-15.2
		c0-8.9,6.3-15.3,14.6-15.3c5,0,9.5,2.8,11.2,6.4V472h4V504z M1054.1,486.5c0-6.6-4.5-11.8-10.9-11.8s-11,5.1-11,11.8
		c0,6.6,4.5,11.8,11,11.8S1054.1,493.1,1054.1,486.5z"/>
	<path d="M1088.1,481.9c0-4.7-3-7.2-7.2-7.2c-3.5,0-6.9,1.9-9.7,5.1v21.1h-4v-29h3.9v4.1c2.6-3.2,6.2-4.9,10.4-4.9
		c6.8,0,10.5,4.1,10.5,10.5v19.2h-4V481.9z"/>
	<path d="M1125.3,482.8v18.1h-4v-19.2c0-4.5-2.8-7-6.9-7c-3.4,0-6.5,1.9-9.3,5.1v21.1h-4v-29h3.9v4.1c2.5-3,5.6-4.9,9.8-4.9
		c4.9,0,8.1,2.2,9.5,5.6c3.2-3.8,6.6-5.6,10.8-5.6c6.8,0,10.3,4.1,10.3,10.5v19.2h-4v-19.2c0-4.5-2.8-7-6.8-7c-3.5,0-6.6,2-9.5,5.3
		C1125.2,480.9,1125.3,481.9,1125.3,482.8z"/>
	<path d="M1156.5,487.7c0.5,6,4.5,10.5,10.6,10.5c3.9,0,7.2-1.8,9-5h4.7c-2.4,5.3-7.7,8.5-13.7,8.5c-8.3,0-14.7-6.4-14.7-15.2
		c0-8.9,6.4-15.3,14.6-15.3c7.6,0,14.6,5.3,14.6,16.3v0.1H1156.5z M1156.7,484.4h20.5c-0.5-5.3-4.4-9.7-10.1-9.7
		C1161.3,474.7,1157.4,478.9,1156.7,484.4z"/>
	<path d="M1209.3,481.9c0-4.7-3-7.2-7.2-7.2c-3.5,0-6.9,1.9-9.7,5.1v21.1h-4v-29h3.9v4.1c2.6-3.2,6.2-4.9,10.4-4.9
		c6.8,0,10.5,4.1,10.5,10.5v19.2h-4V481.9z"/>
	<path d="M1227.9,459.8V472h7.2v3.3h-7.2V495c0,2.7,1.9,2.8,4.1,2.8c1.8,0,3-0.2,3-0.2v3.3c0,0-2.1,0.3-4.5,0.3
		c-3,0-6.7-0.8-6.7-6.2v-19.7h-5V472h5v-12.2H1227.9z"/>
	<path d="M981,533c12.9,0,23.3,9.9,23.3,23.8s-10.4,23.8-23.3,23.8s-23.3-9.9-23.3-23.8S968.2,533,981,533z M981,536.5
		c-11.4,0-19.2,8.7-19.2,20.2S969.6,577,981,577s19.2-8.7,19.2-20.2S992.5,536.5,981,536.5z"/>
	<path d="M1015.5,574.3v16.9h-4v-40.4h4v5.6c1.7-3.6,6.2-6.4,11.2-6.4c8.3,0,14.6,6.4,14.6,15.3c0,8.9-6.4,15.2-14.7,15.2
		C1021.6,580.5,1017.2,577.8,1015.5,574.3z M1026.2,553.5c-6.4,0-11,5.1-11,11.8c0,6.6,4.5,11.8,11,11.8s10.9-5.1,10.9-11.8
		C1037.1,558.6,1032.7,553.5,1026.2,553.5z"/>
	<path d="M1050.6,566.5c0.5,6,4.5,10.5,10.6,10.5c3.9,0,7.2-1.8,9-5h4.7c-2.4,5.3-7.7,8.5-13.7,8.5c-8.3,0-14.7-6.4-14.7-15.2
		c0-8.9,6.4-15.3,14.6-15.3c7.6,0,14.6,5.3,14.6,16.3v0.1H1050.6z M1050.7,563.2h20.5c-0.5-5.3-4.4-9.7-10.1-9.7
		C1055.3,553.5,1051.4,557.7,1050.7,563.2z"/>
	<path d="M1097.2,554.3h-2c-5.1,0-8.8,2.4-8.8,9.2v16.2h-3.9v-29h3.8v4.9c1.6-3.9,5.3-5.4,8.7-5.4c0.7,0,1.4,0.1,2.2,0.1V554.3z"/>
	<path d="M1120.4,559.7c0-4.4-3.4-6.2-7.3-6.2c-3.6,0-6.5,1.5-8.9,3.2l-1.9-3c2-1.5,6-3.7,11.1-3.7c6.9,0,11,3.9,11,9.8v19.9h-4
		v-3.6c-1.6,2.9-5.6,4.4-9.1,4.4c-6.3,0-10.5-3.7-10.5-8.9c0-5.3,3.8-8.5,9.8-8.5h7c2,0,2.8-1.1,2.8-2.6V559.7z M1120.4,569.4v-4
		c-0.7,0.9-2.2,1.1-3.7,1.1h-5.4c-4.3,0-6.2,2.1-6.2,5.1c0,2.5,1.9,5.5,6.8,5.5C1116.2,577.1,1120.4,574.7,1120.4,569.4z"/>
	<path d="M1139,538.6v12.2h7.2v3.3h-7.2v19.6c0,2.7,1.9,2.8,4.1,2.8c1.8,0,3-0.2,3-0.2v3.3c0,0-2.1,0.3-4.5,0.3
		c-3,0-6.7-0.8-6.7-6.2v-19.7h-5v-3.3h5v-12.2H1139z"/>
	<path d="M1164.9,550c8.3,0,15,6.4,15,15.3c0,8.9-6.7,15.2-15,15.2c-8.3,0-15-6.4-15-15.2C1149.9,556.4,1156.6,550,1164.9,550z
		 M1164.9,553.5c-6.4,0-10.9,5.1-10.9,11.8c0,6.6,4.5,11.8,10.9,11.8c6.5,0,11-5.1,11-11.8C1175.8,558.6,1171.4,553.5,1164.9,553.5z
		"/>
	<path d="M1201.8,554.3h-2c-5.1,0-8.8,2.4-8.8,9.2v16.2h-3.9v-29h3.8v4.9c1.6-3.9,5.3-5.4,8.7-5.4c0.7,0,1.4,0.1,2.2,0.1V554.3z"/>
</g>
<g>
	<path d="M492.8,455h4.5l13.9,41.8h0.1l14.1-41.8h4.1l-15.8,46h-5.1L492.8,455z"/>
	<path d="M548.9,480.9c0-4.4-3.4-6.2-7.3-6.2c-3.6,0-6.5,1.5-8.9,3.2l-1.9-3c2-1.5,6-3.7,11.1-3.7c6.9,0,11,3.9,11,9.8v19.9h-4v-3.6
		c-1.6,2.9-5.6,4.4-9.1,4.4c-6.3,0-10.5-3.7-10.5-8.9c0-5.3,3.8-8.5,9.8-8.5h7c2,0,2.8-1.1,2.8-2.6V480.9z M548.9,490.6v-4
		c-0.7,0.9-2.2,1.1-3.7,1.1h-5.4c-4.3,0-6.2,2.1-6.2,5.1c0,2.5,1.9,5.5,6.8,5.5C544.7,498.3,548.9,495.9,548.9,490.6z"/>
	<path d="M576.6,475.5h-2c-5.1,0-8.8,2.4-8.8,9.2v16.2h-3.9v-29h3.8v4.9c1.6-3.9,5.3-5.4,8.7-5.4c0.7,0,1.4,0.1,2.2,0.1V475.5z"/>
	<path d="M587.7,500.9h-4v-25.6h-4.6V472h8.6V500.9z M585.4,458c1.9,0,3.5,1.6,3.5,3.5s-1.6,3.5-3.5,3.5s-3.5-1.6-3.5-3.5
		S583.5,458,585.4,458z"/>
	<path d="M614.2,480.9c0-4.4-3.4-6.2-7.3-6.2c-3.6,0-6.5,1.5-8.9,3.2l-1.9-3c2-1.5,6-3.7,11.1-3.7c6.9,0,11,3.9,11,9.8v19.9h-4v-3.6
		c-1.6,2.9-5.6,4.4-9.1,4.4c-6.3,0-10.5-3.7-10.5-8.9c0-5.3,3.8-8.5,9.8-8.5h7c2,0,2.8-1.1,2.8-2.6V480.9z M614.2,490.6v-4
		c-0.7,0.9-2.2,1.1-3.7,1.1H605c-4.3,0-6.2,2.1-6.2,5.1c0,2.5,1.9,5.5,6.8,5.5C610,498.3,614.2,495.9,614.2,490.6z"/>
	<path d="M631.2,495.5v5.4h-4v-46h4v22.7c1.7-3.6,6.2-6.4,11.2-6.4c8.3,0,14.6,6.4,14.6,15.3c0,8.9-6.4,15.2-14.7,15.2
		C637.3,501.7,632.9,499,631.2,495.5z M641.9,474.7c-6.4,0-11,5.1-11,11.8c0,6.6,4.5,11.8,11,11.8s10.9-5.1,10.9-11.8
		C652.8,479.9,648.4,474.7,641.9,474.7z"/>
	<path d="M668.2,500.9h-4v-46h4V500.9z"/>
	<path d="M679.6,487.7c0.5,6,4.5,10.5,10.6,10.5c3.9,0,7.2-1.8,9-5h4.7c-2.4,5.3-7.7,8.5-13.7,8.5c-8.3,0-14.7-6.4-14.7-15.2
		c0-8.9,6.4-15.3,14.6-15.3c7.6,0,14.6,5.3,14.6,16.3v0.1H679.6z M679.7,484.4h20.5c-0.5-5.3-4.4-9.7-10.1-9.7
		C684.3,474.7,680.5,478.9,679.7,484.4z"/>
	<path d="M528.6,579.7h-3.9v-46h5.6l22.1,40.1v-40.1h3.9v46h-5.1l-22.7-40.9V579.7z"/>
	<path d="M583.5,559.7c0-4.4-3.4-6.2-7.3-6.2c-3.6,0-6.5,1.5-8.9,3.2l-1.9-3c2-1.5,6-3.7,11.1-3.7c6.9,0,11,3.9,11,9.8v19.9h-4v-3.6
		c-1.6,2.9-5.6,4.4-9.1,4.4c-6.3,0-10.5-3.7-10.5-8.9c0-5.3,3.8-8.5,9.8-8.5h7c2,0,2.8-1.1,2.8-2.6V559.7z M583.5,569.4v-4
		c-0.7,0.9-2.2,1.1-3.7,1.1h-5.4c-4.3,0-6.2,2.1-6.2,5.1c0,2.5,1.9,5.5,6.8,5.5C579.3,577.1,583.5,574.7,583.5,569.4z"/>
	<path d="M620.6,561.6v18.1h-4v-19.2c0-4.5-2.8-7-6.9-7c-3.4,0-6.5,1.9-9.3,5.1v21.1h-4v-29h3.9v4.1c2.5-3,5.6-4.9,9.8-4.9
		c4.9,0,8.1,2.2,9.5,5.6c3.2-3.8,6.6-5.6,10.8-5.6c6.8,0,10.3,4.1,10.3,10.5v19.2h-4v-19.2c0-4.5-2.8-7-6.8-7c-3.5,0-6.6,2-9.5,5.3
		C620.6,559.7,620.6,560.7,620.6,561.6z"/>
	<path d="M651.9,566.5c0.5,6,4.5,10.5,10.6,10.5c3.9,0,7.2-1.8,9-5h4.7c-2.4,5.3-7.7,8.5-13.7,8.5c-8.3,0-14.7-6.4-14.7-15.2
		c0-8.9,6.4-15.3,14.6-15.3c7.6,0,14.6,5.3,14.6,16.3v0.1H651.9z M652,563.2h20.5c-0.5-5.3-4.4-9.7-10.1-9.7
		C656.6,553.5,652.7,557.7,652,563.2z"/>
</g>
<g>
	<path d="M1474.8,455h4.5l13.9,41.8h0.1l14.1-41.8h4.1l-15.8,46h-5.1L1474.8,455z"/>
	<path d="M1530.9,480.9c0-4.4-3.4-6.2-7.3-6.2c-3.6,0-6.5,1.5-8.9,3.2l-1.9-3c2-1.5,6-3.7,11.1-3.7c6.9,0,11,3.9,11,9.8v19.9h-4
		v-3.6c-1.6,2.9-5.6,4.4-9.1,4.4c-6.3,0-10.5-3.7-10.5-8.9c0-5.3,3.8-8.5,9.8-8.5h7c2,0,2.8-1.1,2.8-2.6V480.9z M1530.9,490.6v-4
		c-0.7,0.9-2.2,1.1-3.7,1.1h-5.4c-4.3,0-6.2,2.1-6.2,5.1c0,2.5,1.9,5.5,6.8,5.5C1526.7,498.3,1530.9,495.9,1530.9,490.6z"/>
	<path d="M1558.6,475.5h-2c-5.1,0-8.8,2.4-8.8,9.2v16.2h-3.9v-29h3.8v4.9c1.6-3.9,5.3-5.4,8.7-5.4c0.7,0,1.4,0.1,2.2,0.1V475.5z"/>
	<path d="M1569.7,500.9h-4v-25.6h-4.6V472h8.6V500.9z M1567.4,458c1.9,0,3.5,1.6,3.5,3.5s-1.6,3.5-3.5,3.5s-3.5-1.6-3.5-3.5
		S1565.5,458,1567.4,458z"/>
	<path d="M1596.2,480.9c0-4.4-3.4-6.2-7.3-6.2c-3.6,0-6.5,1.5-8.9,3.2l-1.9-3c2-1.5,6-3.7,11.1-3.7c6.9,0,11,3.9,11,9.8v19.9h-4
		v-3.6c-1.6,2.9-5.6,4.4-9.1,4.4c-6.3,0-10.5-3.7-10.5-8.9c0-5.3,3.8-8.5,9.8-8.5h7c2,0,2.8-1.1,2.8-2.6V480.9z M1596.2,490.6v-4
		c-0.7,0.9-2.2,1.1-3.7,1.1h-5.4c-4.3,0-6.2,2.1-6.2,5.1c0,2.5,1.9,5.5,6.8,5.5C1592,498.3,1596.2,495.9,1596.2,490.6z"/>
	<path d="M1613.2,495.5v5.4h-4v-46h4v22.7c1.7-3.6,6.2-6.4,11.2-6.4c8.3,0,14.6,6.4,14.6,15.3c0,8.9-6.4,15.2-14.7,15.2
		C1619.3,501.7,1614.9,499,1613.2,495.5z M1623.9,474.7c-6.4,0-11,5.1-11,11.8c0,6.6,4.5,11.8,11,11.8s10.9-5.1,10.9-11.8
		C1634.8,479.9,1630.4,474.7,1623.9,474.7z"/>
	<path d="M1650.2,500.9h-4v-46h4V500.9z"/>
	<path d="M1661.6,487.7c0.5,6,4.5,10.5,10.6,10.5c3.9,0,7.2-1.8,9-5h4.7c-2.4,5.3-7.7,8.5-13.7,8.5c-8.3,0-14.7-6.4-14.7-15.2
		c0-8.9,6.4-15.3,14.6-15.3c7.6,0,14.6,5.3,14.6,16.3v0.1H1661.6z M1661.7,484.4h20.5c-0.5-5.3-4.4-9.7-10.1-9.7
		C1666.3,474.7,1662.5,478.9,1661.7,484.4z"/>
	<path d="M1509.2,533.8h4.5l13.9,41.8h0.1l14.1-41.8h4.1l-15.8,46h-5.1L1509.2,533.8z"/>
	<path d="M1565.4,559.7c0-4.4-3.4-6.2-7.3-6.2c-3.6,0-6.5,1.5-8.9,3.2l-1.9-3c2-1.5,6-3.7,11.1-3.7c6.9,0,11,3.9,11,9.8v19.9h-4
		v-3.6c-1.6,2.9-5.6,4.4-9.1,4.4c-6.3,0-10.5-3.7-10.5-8.9c0-5.3,3.8-8.5,9.8-8.5h7c2,0,2.8-1.1,2.8-2.6V559.7z M1565.4,569.4v-4
		c-0.7,0.9-2.2,1.1-3.7,1.1h-5.4c-4.3,0-6.2,2.1-6.2,5.1c0,2.5,1.9,5.5,6.8,5.5C1561.2,577.1,1565.4,574.7,1565.4,569.4z"/>
	<path d="M1582.4,579.7h-4v-46h4V579.7z"/>
	<path d="M1591.3,569.4v-18.6h4V569c0,5.3,3.6,7.9,8.4,7.9s8.4-2.7,8.4-7.9v-18.3h4v18.6c0,6.1-4.3,11.1-12.4,11.1
		S1591.3,575.5,1591.3,569.4z"/>
	<path d="M1627.1,566.5c0.5,6,4.5,10.5,10.6,10.5c3.9,0,7.2-1.8,9-5h4.7c-2.4,5.3-7.7,8.5-13.7,8.5c-8.3,0-14.7-6.4-14.7-15.2
		c0-8.9,6.4-15.3,14.6-15.3c7.6,0,14.6,5.3,14.6,16.3v0.1H1627.1z M1627.3,563.2h20.5c-0.5-5.3-4.4-9.7-10.1-9.7
		C1631.9,553.5,1628,557.7,1627.3,563.2z"/>
</g>
</svg>
